<svg xmlns="http://www.w3.org/2000/svg" viewBox="0 0 1023 1023.1"><defs><style>.cls-1{fill:#7289da;}.cls-2{fill:#18191c;}</style></defs><title>utyhook</title><g id="Calque_2" data-name="Calque 2"><rect class="cls-1" x="136.7" y="136.9" width="749.2" height="749.16"/></g><g id="Calque_1" data-name="Calque 1"><path class="cls-2" d="M85.8,1.1a105.7,105.7,0,0,0-42.9,17c-8.2,5.5-19.3,16.6-24.8,24.8S5.4,66.2,2.8,76.6L.5,85.5v853l2.3,8.9a104.5,104.5,0,0,0,26.7,47.1,104.5,104.5,0,0,0,47.1,26.7l8.9,2.3h853l8.9-2.3c9.7-2.4,24.6-9,32.3-14.3a102,102,0,0,0,41.9-61.4c1.8-7.7,1.9-23,1.9-434V85.5l-2.3-8.9a104.5,104.5,0,0,0-26.7-47.1A106.3,106.3,0,0,0,948,2.8L939.5.5h-424C282.3.3,88.9.6,85.8,1.1ZM546.2,139.9c33.4,7.3,62.8,23.1,86.3,46.6,29.3,29.3,47.4,69.3,49.2,108.7l.6,11.8H615.2l-.7-8.3c-3.8-43.9-34.4-80-77.4-91.4-8.3-2.2-11.7-2.6-25.1-2.6s-16.7.4-25.4,2.6a103.9,103.9,0,0,0-74.3,74.6c-2.2,8.3-2.6,11.7-2.6,25.1s.3,16.7,2.6,25.4a104.7,104.7,0,0,0,57.1,68.2l7.6,3.5v71.2L423,581.6c-29.7,58.4-54,106.7-54,107.3s41,1.1,142.8,1.1H654.6l2.1-4.3c7.4-15.1,22.3-27.6,39.8-33.4,6.9-2.3,9.7-2.7,20.5-2.7s13.6.4,20.5,2.7a68.9,68.9,0,0,1,44.2,44.2c2.3,6.9,2.7,9.6,2.7,20.5s-.4,13.6-2.7,20.5a68.9,68.9,0,0,1-44.2,44.2c-6.9,2.3-9.6,2.7-20.5,2.7s-13.6-.4-20.5-2.7c-17.5-5.8-32.4-18.3-39.8-33.5l-2.1-4.2H369.4l-2.1,4.3c-7.4,15.1-22.3,27.6-39.8,33.4-6.9,2.3-9.7,2.7-20.5,2.7s-13.6-.4-20.5-2.7a68.9,68.9,0,0,1-44.2-44.2c-2.3-6.9-2.7-9.6-2.7-20.5s.4-13.6,2.7-20.5a66.1,66.1,0,0,1,16.8-27.4c12.9-13,27.8-19.2,46.9-19.7l11.5-.2,46.3-86.9c61.2-114.7,59-110.5,57.3-111.1s-5.7-3.7-11-7.7C376.3,418,354,383,344.8,340.7c-2-8.9-2.2-13.1-2.2-33.7s.2-24.8,2.2-33.7c15.5-71,70.1-123.3,140.8-134.8C499,136.3,533.4,137.1,546.2,139.9ZM532.5,242.4c32.9,10.5,52.8,44.1,46.1,77.5-1.7,8.5-5.8,18.8-9.5,24l-2,2.8,74.9,100,75,100,11.8.6c67.1,3.2,128.8,51.1,150.2,116.5,6.4,19.7,7.4,27.3,7.4,53.2s-1,33.5-7.4,53.2C862.4,821,821,862.4,770.2,879c-19.7,6.4-27.3,7.4-53.2,7.4-20.6,0-24.8-.2-33.7-2.2C631.1,872.8,588.2,840.1,565,794l-4-8h79.6l3.5,3.6c11,11.4,30.5,22.5,47.5,27.1,8.7,2.2,11.9,2.6,25.4,2.6s16.7-.4,25.4-2.6a103.8,103.8,0,0,0,74.3-74.6c2.2-8.3,2.6-11.7,2.6-25.1s-.4-16.7-2.6-25.4a103.8,103.8,0,0,0-74.6-74.3c-8.6-2.3-12.3-2.6-34.6-3.2l-24.9-.6L597.5,494.4l-85-119.1-6.7-.7a68.9,68.9,0,0,1-41.7-19.7,66.1,66.1,0,0,1-16.8-27.4c-2.3-6.9-2.7-9.6-2.7-20.5s.4-13.6,2.7-20.5c8-24,26-40.3,51.2-46.1C507.5,238.3,522.6,239.2,532.5,242.4ZM307,580.4v33.4l-8.2.7c-44,3.8-80.1,34.4-91.5,77.4-2.2,8.3-2.6,11.7-2.6,25.1s.4,16.7,2.6,25.4a103.8,103.8,0,0,0,74.6,74.3c8.3,2.2,11.7,2.6,25.1,2.6s16.7-.4,25.4-2.6c17-4.6,36.5-15.7,47.5-27.1l3.5-3.6H463l-4,8c-23.2,46.1-66.1,78.8-118.3,90.2-8.9,2-13.1,2.2-33.7,2.2-25.9,0-33.5-1-53.2-7.4C203,862.4,161.6,821,145,770.2c-6.4-19.7-7.4-27.3-7.4-53.2,0-20.6.2-24.8,2.2-33.7,12.7-58.2,50.9-103.5,105.5-125.2,16.3-6.5,37.2-10.8,53-11H307Z" transform="translate(-0.5 -0.4)"/></g></svg>